<?xml version="1.0" standalone="no"?>
<!DOCTYPE svg PUBLIC "-//W3C//DTD SVG 20010904//EN"
 "http://www.w3.org/TR/2001/REC-SVG-20010904/DTD/svg10.dtd">
<svg version="1.0" xmlns="http://www.w3.org/2000/svg"
 width="1024.000000pt" height="1024.000000pt" viewBox="0 0 1024.000000 1024.000000"
 preserveAspectRatio="xMidYMid meet">

<g transform="translate(0.000000,1024.000000) scale(0.100000,-0.100000)"
fill="#000000" stroke="none">
<path d="M1730 8522 c-62 -30 -75 -74 -74 -242 2 -467 201 -836 589 -1092 175
-115 292 -178 718 -387 204 -100 372 -189 385 -204 13 -14 26 -43 29 -64 5
-35 2 -43 -23 -62 -22 -17 -38 -22 -64 -18 -75 10 -706 282 -1095 472 -179 88
-230 109 -276 112 -52 5 -57 3 -77 -22 -53 -66 -4 -319 101 -530 132 -266 342
-473 626 -618 135 -70 394 -171 691 -272 342 -116 380 -135 380 -192 0 -40
-29 -63 -77 -63 -54 0 -409 103 -856 247 -323 104 -338 106 -364 52 -17 -34 2
-101 63 -224 132 -265 334 -489 604 -670 250 -167 504 -273 935 -391 147 -40
205 -60 218 -75 16 -20 17 -68 17 -703 0 -416 4 -706 10 -746 44 -277 220
-488 485 -578 l80 -27 1690 0 1690 0 75 23 c111 35 202 87 282 161 130 120
205 268 229 451 10 75 9 2414 -1 3385 l-5 480 -31 86 c-81 227 -281 408 -499
454 -60 13 -327 15 -1863 15 l-1793 0 -24 -25 c-34 -33 -33 -85 2 -144 48 -84
140 -216 168 -241 l27 -25 1686 -5 c1529 -5 1690 -7 1723 -21 56 -26 104 -74
130 -131 l24 -53 3 -1854 c3 -2040 6 -1911 -58 -2000 -22 -30 -50 -51 -93 -72
l-62 -29 -1593 0 c-1105 0 -1606 3 -1636 11 -62 15 -135 75 -165 134 l-26 49
-2 986 c-6 2135 -7 2211 -31 2345 -88 493 -291 834 -673 1131 -220 172 -355
253 -849 514 -447 237 -674 365 -935 528 -110 69 -221 134 -248 144 -60 23
-122 23 -167 0z"/>
<path d="M5337 5955 c-77 -27 -119 -88 -121 -175 -1 -70 26 -125 83 -165 l43
-30 1131 -3 1132 -2 44 22 c86 44 125 125 107 223 -9 45 -59 103 -111 126 -38
18 -98 19 -1155 18 -919 0 -1122 -2 -1153 -14z"/>
<path d="M5337 4906 c-79 -29 -121 -91 -121 -181 0 -74 26 -123 87 -163 l41
-27 845 0 c815 0 847 1 885 19 56 28 96 95 96 162 0 90 -36 149 -115 185 -38
18 -83 19 -860 18 -666 0 -827 -2 -858 -13z"/>
<path d="M5330 3864 c-151 -65 -156 -269 -9 -344 37 -19 62 -20 583 -20 361 0
554 4 573 11 63 24 122 109 123 177 0 71 -46 141 -115 173 -37 17 -76 19 -580
18 -460 0 -545 -2 -575 -15z"/>
</g>
</svg>
